<?xml version="1.0" encoding="UTF-8" standalone="no"?>
<!-- Created with Inkscape (http://www.inkscape.org/) -->

<svg
   xmlns:dc="http://purl.org/dc/elements/1.1/"
   xmlns:cc="http://creativecommons.org/ns#"
   xmlns:rdf="http://www.w3.org/1999/02/22-rdf-syntax-ns#"
   xmlns:svg="http://www.w3.org/2000/svg"
   xmlns="http://www.w3.org/2000/svg"
   xmlns:xlink="http://www.w3.org/1999/xlink"
   xmlns:sodipodi="http://sodipodi.sourceforge.net/DTD/sodipodi-0.dtd"
   xmlns:inkscape="http://www.inkscape.org/namespaces/inkscape"
   width="512"
   height="512"
   id="svg8471"
   version="1.1"
   inkscape:version="0.48.4 r9939"
   sodipodi:docname="quad.svg">
  <defs
     id="defs8473">
    <linearGradient
       inkscape:collect="always"
       xlink:href="#linearGradient3837-2-7"
       id="linearGradient4078"
       gradientUnits="userSpaceOnUse"
       gradientTransform="matrix(0.70710678,0.70710678,-0.70710678,0.70710678,235.94788,695.47198)"
       x1="740.82019"
       y1="357.63239"
       x2="1074.4446"
       y2="357.63239" />
    <linearGradient
       id="linearGradient3837-2-7">
      <stop
         style="stop-color:#2e4f67;stop-opacity:0.20353982;"
         offset="0"
         id="stop3839-9-8" />
      <stop
         style="stop-color:#7e9cbd;stop-opacity:0.10619469;"
         offset="1"
         id="stop3841-81-8" />
    </linearGradient>
    <linearGradient
       id="linearGradient3837-2-1-7">
      <stop
         style="stop-color:#2e4f67;stop-opacity:0.20353982;"
         offset="0"
         id="stop3839-9-83-7" />
      <stop
         style="stop-color:#7e9cbd;stop-opacity:0.10619469;"
         offset="1"
         id="stop3841-81-17-2" />
    </linearGradient>
  </defs>
  <sodipodi:namedview
     id="base"
     pagecolor="#fcca00"
     bordercolor="#666666"
     borderopacity="1.0"
     inkscape:pageopacity="0"
     inkscape:pageshadow="2"
     inkscape:zoom="0.24748737"
     inkscape:cx="287.36074"
     inkscape:cy="-201.44187"
     inkscape:document-units="px"
     inkscape:current-layer="layer1"
     showgrid="false"
     showguides="true"
     inkscape:guide-bbox="true"
     inkscape:window-width="1920"
     inkscape:window-height="1031"
     inkscape:window-x="0"
     inkscape:window-y="25"
     inkscape:window-maximized="1" />
  <metadata
     id="metadata8476">
    <rdf:RDF>
      <cc:Work
         rdf:about="">
        <dc:format>image/svg+xml</dc:format>
        <dc:type
           rdf:resource="http://purl.org/dc/dcmitype/StillImage" />
        <dc:title />
      </cc:Work>
    </rdf:RDF>
  </metadata>
  <g
     inkscape:label="Layer 1"
     inkscape:groupmode="layer"
     id="layer1"
     transform="translate(0,-540.36218)">
    <path
       sodipodi:type="arc"
       style="opacity:0.94999999999999996;fill:#fcca00;fill-opacity:1;stroke:none"
       id="path4591-5-0-4-5-4"
       sodipodi:cx="242"
       sodipodi:cy="-180"
       sodipodi:rx="254"
       sodipodi:ry="254"
       d="M 496,-180 C 496,-39.719674 382.28033,74 242,74 101.71967,74 -12,-39.719674 -12,-180 c 0,-140.28033 113.71967,-254 254,-254 140.28033,0 254,113.71967 254,254 z"
       transform="matrix(1.007874,0,0,1.007874,12.094489,977.77951)" />
    <path
       sodipodi:type="arc"
       style="opacity:0.8;fill:#000000;fill-opacity:1;stroke:none"
       id="path4591-5-0-4-5-4-7"
       sodipodi:cx="242"
       sodipodi:cy="-180"
       sodipodi:rx="254"
       sodipodi:ry="254"
       d="M 496,-180 C 496,-39.719674 382.28033,74 242,74 101.71967,74 -12,-39.719674 -12,-180 c 0,-140.28033 113.71967,-254 254,-254 140.28033,0 254,113.71967 254,254 z"
       transform="matrix(0.8060342,0,0,0.80603419,60.939717,941.44836)" />
    <path
       id="path8966-3"
       d="m 296.76583,768.52722 h -59.38334 l -17.65448,45.1798 h 59.38337 l 17.65445,-45.1798 z M 466.56964,652.35097 446.66837,703.98494 H 202.0736 l 22.46957,19.36275 h 152.14936 l -38.19793,98.4271 46.54364,40.33913 -27.6053,70.99657 H 45.430345 l 19.9014,-51.63383 H 308.64248 L 286.49402,862.11392 H 141.08551 l 36.59293,-94.87733 -50.39558,-43.8889 27.60531,-70.99672 h 311.68147 z"
       inkscape:connector-curvature="0"
       style="fill:#fcca00;fill-opacity:1" />
  </g>
</svg>
