<?xml version="1.0" encoding="UTF-8" standalone="no"?>
<!-- Created with Inkscape (http://www.inkscape.org/) -->

<svg
   xmlns:dc="http://purl.org/dc/elements/1.1/"
   xmlns:cc="http://creativecommons.org/ns#"
   xmlns:rdf="http://www.w3.org/1999/02/22-rdf-syntax-ns#"
   xmlns:svg="http://www.w3.org/2000/svg"
   xmlns="http://www.w3.org/2000/svg"
   xmlns:xlink="http://www.w3.org/1999/xlink"
   xmlns:sodipodi="http://sodipodi.sourceforge.net/DTD/sodipodi-0.dtd"
   xmlns:inkscape="http://www.inkscape.org/namespaces/inkscape"
   width="512"
   height="512"
   id="svg8471"
   version="1.1"
   inkscape:version="0.48.4 r9939"
   sodipodi:docname="regen.svg">
  <defs
     id="defs8473">
    <linearGradient
       inkscape:collect="always"
       xlink:href="#linearGradient3837-2-7"
       id="linearGradient4078"
       gradientUnits="userSpaceOnUse"
       gradientTransform="matrix(0.70710678,0.70710678,-0.70710678,0.70710678,235.94788,695.47198)"
       x1="740.82019"
       y1="357.63239"
       x2="1074.4446"
       y2="357.63239" />
    <linearGradient
       id="linearGradient3837-2-7">
      <stop
         style="stop-color:#2e4f67;stop-opacity:0.20353982;"
         offset="0"
         id="stop3839-9-8" />
      <stop
         style="stop-color:#7e9cbd;stop-opacity:0.10619469;"
         offset="1"
         id="stop3841-81-8" />
    </linearGradient>
    <linearGradient
       id="linearGradient3837-2-1-7">
      <stop
         style="stop-color:#2e4f67;stop-opacity:0.20353982;"
         offset="0"
         id="stop3839-9-83-7" />
      <stop
         style="stop-color:#7e9cbd;stop-opacity:0.10619469;"
         offset="1"
         id="stop3841-81-17-2" />
    </linearGradient>
  </defs>
  <sodipodi:namedview
     id="base"
     pagecolor="#ff0000"
     bordercolor="#666666"
     borderopacity="1.0"
     inkscape:pageopacity="0"
     inkscape:pageshadow="2"
     inkscape:zoom="0.69999999"
     inkscape:cx="586.70806"
     inkscape:cy="257.60643"
     inkscape:document-units="px"
     inkscape:current-layer="layer1"
     showgrid="false"
     showguides="true"
     inkscape:guide-bbox="true"
     inkscape:window-width="1920"
     inkscape:window-height="1031"
     inkscape:window-x="0"
     inkscape:window-y="25"
     inkscape:window-maximized="1" />
  <metadata
     id="metadata8476">
    <rdf:RDF>
      <cc:Work
         rdf:about="">
        <dc:format>image/svg+xml</dc:format>
        <dc:type
           rdf:resource="http://purl.org/dc/dcmitype/StillImage" />
        <dc:title />
      </cc:Work>
    </rdf:RDF>
  </metadata>
  <g
     inkscape:label="Layer 1"
     inkscape:groupmode="layer"
     id="layer1"
     transform="translate(0,-540.36218)">
    <path
       sodipodi:type="arc"
       style="opacity:1;fill:#f20000;fill-opacity:1;stroke:none"
       id="path4591-5-0-4-5-4"
       sodipodi:cx="242"
       sodipodi:cy="-180"
       sodipodi:rx="254"
       sodipodi:ry="254"
       d="M 496,-180 C 496,-39.719674 382.28033,74 242,74 101.71967,74 -12,-39.719674 -12,-180 c 0,-140.28033 113.71967,-254 254,-254 140.28033,0 254,113.71967 254,254 z"
       transform="matrix(1.007874,0,0,1.007874,12.094488,977.7795)" />
    <path
       sodipodi:type="arc"
       style="opacity:0.8;fill:#000000;fill-opacity:1;stroke:none"
       id="path4591-5-0-4-5-4-7"
       sodipodi:cx="242"
       sodipodi:cy="-180"
       sodipodi:rx="254"
       sodipodi:ry="254"
       d="M 496,-180 C 496,-39.719674 382.28033,74 242,74 101.71967,74 -12,-39.719674 -12,-180 c 0,-140.28033 113.71967,-254 254,-254 140.28033,0 254,113.71967 254,254 z"
       transform="matrix(0.8060342,0,0,0.80603419,60.939718,941.4484)" />
    <path
       inkscape:connector-curvature="0"
       style="opacity:0.15;fill:#000000;fill-opacity:1;stroke:none"
       d="m 198.30209,714.3622 c -43.71447,0.73785 -61.10268,37.02928 -61.62647,60.88449 -9.68163,50.77281 87.27355,130.32159 125.32438,169.11549 38.05093,-38.7939 135.0061,-118.26867 125.32437,-169.0415 -0.52368,-23.8551 -17.912,-60.22063 -61.62647,-60.95848 -20.14773,0.55067 -50.49448,7.20694 -63.6979,45.42296 -13.20343,-38.21602 -43.55018,-44.87229 -63.69791,-45.42296 z"
       id="rect6610-2-8-9-6-5-2" />
    <path
       inkscape:connector-curvature="0"
       style="fill:#f20000;fill-opacity:1;stroke:none"
       d="m 192.30209,694.36218 c -43.71447,0.73785 -61.10268,37.02928 -61.62647,60.88449 -9.68163,50.77281 87.27355,130.32164 125.32438,169.11551 38.05093,-38.79387 135.0061,-118.26869 125.32437,-169.04152 -0.52368,-23.8551 -17.912,-60.22063 -61.62647,-60.95848 -20.14773,0.55067 -50.49448,7.20694 -63.6979,45.42296 -13.20343,-38.21602 -43.55018,-44.87229 -63.69791,-45.42296 z"
       id="rect6610-2-8-9-6-5" />
  </g>
</svg>
