<?xml version="1.0" encoding="UTF-8" standalone="no"?>
<!-- Created with Inkscape (http://www.inkscape.org/) -->

<svg
   xmlns:dc="http://purl.org/dc/elements/1.1/"
   xmlns:cc="http://creativecommons.org/ns#"
   xmlns:rdf="http://www.w3.org/1999/02/22-rdf-syntax-ns#"
   xmlns:svg="http://www.w3.org/2000/svg"
   xmlns="http://www.w3.org/2000/svg"
   xmlns:xlink="http://www.w3.org/1999/xlink"
   xmlns:sodipodi="http://sodipodi.sourceforge.net/DTD/sodipodi-0.dtd"
   xmlns:inkscape="http://www.inkscape.org/namespaces/inkscape"
   width="512"
   height="512"
   id="svg8471"
   version="1.1"
   inkscape:version="0.48.4 r9939"
   sodipodi:docname="warshell.svg">
  <defs
     id="defs8473">
    <linearGradient
       inkscape:collect="always"
       xlink:href="#linearGradient3837-2-7"
       id="linearGradient4078"
       gradientUnits="userSpaceOnUse"
       gradientTransform="matrix(0.70710678,0.70710678,-0.70710678,0.70710678,235.94788,695.47198)"
       x1="740.82019"
       y1="357.63239"
       x2="1074.4446"
       y2="357.63239" />
    <linearGradient
       id="linearGradient3837-2-7">
      <stop
         style="stop-color:#2e4f67;stop-opacity:0.20353982;"
         offset="0"
         id="stop3839-9-8" />
      <stop
         style="stop-color:#7e9cbd;stop-opacity:0.10619469;"
         offset="1"
         id="stop3841-81-8" />
    </linearGradient>
    <linearGradient
       id="linearGradient3837-2-1-7">
      <stop
         style="stop-color:#2e4f67;stop-opacity:0.20353982;"
         offset="0"
         id="stop3839-9-83-7" />
      <stop
         style="stop-color:#7e9cbd;stop-opacity:0.10619469;"
         offset="1"
         id="stop3841-81-17-2" />
    </linearGradient>
    <linearGradient
       inkscape:collect="always"
       xlink:href="#linearGradient3837-2-9"
       id="linearGradient4174"
       gradientUnits="userSpaceOnUse"
       gradientTransform="matrix(0.70710678,0.70710678,-0.70710678,0.70710678,-1476.0521,355.47198)"
       x1="740.82019"
       y1="357.63239"
       x2="1074.4446"
       y2="357.63239" />
    <linearGradient
       id="linearGradient3837-2-9">
      <stop
         style="stop-color:#2e4f67;stop-opacity:0.20353982;"
         offset="0"
         id="stop3839-9-5" />
      <stop
         style="stop-color:#7e9cbd;stop-opacity:0.10619469;"
         offset="1"
         id="stop3841-81-4" />
    </linearGradient>
  </defs>
  <sodipodi:namedview
     id="base"
     pagecolor="#0080f5"
     bordercolor="#666666"
     borderopacity="1.0"
     inkscape:pageopacity="0"
     inkscape:pageshadow="2"
     inkscape:zoom="0.35"
     inkscape:cx="253.99105"
     inkscape:cy="88.74092"
     inkscape:document-units="px"
     inkscape:current-layer="layer1"
     showgrid="false"
     showguides="true"
     inkscape:guide-bbox="true"
     inkscape:window-width="1920"
     inkscape:window-height="1031"
     inkscape:window-x="0"
     inkscape:window-y="25"
     inkscape:window-maximized="1" />
  <metadata
     id="metadata8476">
    <rdf:RDF>
      <cc:Work
         rdf:about="">
        <dc:format>image/svg+xml</dc:format>
        <dc:type
           rdf:resource="http://purl.org/dc/dcmitype/StillImage" />
        <dc:title />
      </cc:Work>
    </rdf:RDF>
  </metadata>
  <g
     inkscape:label="Layer 1"
     inkscape:groupmode="layer"
     id="layer1"
     transform="translate(0,-540.36218)">
    <path
       sodipodi:type="arc"
       style="opacity:0.94999999999999996;fill:#0080f5;fill-opacity:1;stroke:none"
       id="path4591-5-0-4-5-4"
       sodipodi:cx="242"
       sodipodi:cy="-180"
       sodipodi:rx="254"
       sodipodi:ry="254"
       d="m 496,-180 a 254,254 0 1 1 -508,0 254,254 0 1 1 508,0 z"
       transform="matrix(1.007874,0,0,1.007874,12.094488,977.7795)" />
    <path
       sodipodi:type="arc"
       style="opacity:0.8;fill:#000000;fill-opacity:1;stroke:none"
       id="path4591-5-0-4-5-4-7"
       sodipodi:cx="242"
       sodipodi:cy="-180"
       sodipodi:rx="254"
       sodipodi:ry="254"
       d="m 496,-180 a 254,254 0 1 1 -508,0 254,254 0 1 1 508,0 z"
       transform="matrix(0.8060342,0,0,0.80603419,60.939718,941.44835)" />
    <path
       style="opacity:0.15;fill:#000000;fill-opacity:1;stroke:none"
       d="M 261.99357,711.87725 C 232.77604,719.63954 202.84271,727.42114 174,728.39697 l 0,119.437 c 4.99277,39.23581 46.71825,79.39818 88.12243,80.04321 l 0,-0.0281 C 303.46269,927.12635 345.01505,887.00862 350,847.8341 l 0,-119.43699 c -28.84272,-0.97583 -58.77604,-8.75743 -87.99358,-16.51972 -0.004,-8.7e-4 -0.009,8.8e-4 -0.0127,0 z"
       id="rect2996-9-8"
       inkscape:connector-curvature="0"
       sodipodi:nodetypes="cccccccccc" />
    <path
       style="fill:#0080f5;fill-opacity:1;stroke:none"
       d="M 255.99357,691.87754 C 226.77604,699.63983 196.84271,707.42143 168,708.39726 l 0,119.437 c 4.99277,39.23581 46.71825,79.39818 88.12243,80.04321 l 0,-0.0281 C 297.46269,907.12664 339.01505,867.00891 344,827.83439 l 0,-119.43699 c -28.84272,-0.97583 -58.77604,-8.75743 -87.99358,-16.51972 -0.004,-8.7e-4 -0.009,8.8e-4 -0.0127,0 z"
       id="rect2996-9"
       inkscape:connector-curvature="0"
       sodipodi:nodetypes="cccccccccc" />
  </g>
</svg>
