<?xml version="1.0" encoding="UTF-8" standalone="no"?>
<!-- Created with Inkscape (http://www.inkscape.org/) -->

<svg
   xmlns:dc="http://purl.org/dc/elements/1.1/"
   xmlns:cc="http://creativecommons.org/ns#"
   xmlns:rdf="http://www.w3.org/1999/02/22-rdf-syntax-ns#"
   xmlns:svg="http://www.w3.org/2000/svg"
   xmlns="http://www.w3.org/2000/svg"
   xmlns:xlink="http://www.w3.org/1999/xlink"
   xmlns:sodipodi="http://sodipodi.sourceforge.net/DTD/sodipodi-0.dtd"
   xmlns:inkscape="http://www.inkscape.org/namespaces/inkscape"
   width="512"
   height="512"
   id="svg8471"
   version="1.1"
   inkscape:version="0.48.4 r9939"
   sodipodi:docname="grenade.svg">
  <defs
     id="defs8473">
    <linearGradient
       inkscape:collect="always"
       xlink:href="#linearGradient3837-2-7"
       id="linearGradient4078"
       gradientUnits="userSpaceOnUse"
       gradientTransform="matrix(0.70710678,0.70710678,-0.70710678,0.70710678,235.94788,695.47198)"
       x1="740.82019"
       y1="357.63239"
       x2="1074.4446"
       y2="357.63239" />
    <linearGradient
       id="linearGradient3837-2-7">
      <stop
         style="stop-color:#2e4f67;stop-opacity:0.20353982;"
         offset="0"
         id="stop3839-9-8" />
      <stop
         style="stop-color:#7e9cbd;stop-opacity:0.10619469;"
         offset="1"
         id="stop3841-81-8" />
    </linearGradient>
    <linearGradient
       id="linearGradient3837-2-1-7">
      <stop
         style="stop-color:#2e4f67;stop-opacity:0.20353982;"
         offset="0"
         id="stop3839-9-83-7" />
      <stop
         style="stop-color:#7e9cbd;stop-opacity:0.10619469;"
         offset="1"
         id="stop3841-81-17-2" />
    </linearGradient>
    <linearGradient
       inkscape:collect="always"
       xlink:href="#linearGradient3837-2-9"
       id="linearGradient4174"
       gradientUnits="userSpaceOnUse"
       gradientTransform="matrix(0.70710678,0.70710678,-0.70710678,0.70710678,-1476.0521,355.47198)"
       x1="740.82019"
       y1="357.63239"
       x2="1074.4446"
       y2="357.63239" />
    <linearGradient
       id="linearGradient3837-2-9">
      <stop
         style="stop-color:#2e4f67;stop-opacity:0.20353982;"
         offset="0"
         id="stop3839-9-5" />
      <stop
         style="stop-color:#7e9cbd;stop-opacity:0.10619469;"
         offset="1"
         id="stop3841-81-4" />
    </linearGradient>
  </defs>
  <sodipodi:namedview
     id="base"
     pagecolor="#00519e"
     bordercolor="#666666"
     borderopacity="1.0"
     inkscape:pageopacity="0"
     inkscape:pageshadow="2"
     inkscape:zoom="0.35"
     inkscape:cx="425.61051"
     inkscape:cy="236.94499"
     inkscape:document-units="px"
     inkscape:current-layer="g9613"
     showgrid="false"
     showguides="true"
     inkscape:guide-bbox="true"
     inkscape:window-width="1920"
     inkscape:window-height="1031"
     inkscape:window-x="0"
     inkscape:window-y="25"
     inkscape:window-maximized="1" />
  <metadata
     id="metadata8476">
    <rdf:RDF>
      <cc:Work
         rdf:about="">
        <dc:format>image/svg+xml</dc:format>
        <dc:type
           rdf:resource="http://purl.org/dc/dcmitype/StillImage" />
        <dc:title />
      </cc:Work>
    </rdf:RDF>
  </metadata>
  <g
     inkscape:label="Layer 1"
     inkscape:groupmode="layer"
     id="layer1"
     transform="translate(0,-540.36218)">
    <g
       transform="translate(-1908.5265,1546.6194)"
       id="g9613">
      <rect
         ry="62.792469"
         y="-1006.2572"
         x="1908.5265"
         height="512"
         width="512"
         id="rect7432-91-4-5-5"
         style="fill:#00609e;fill-opacity:1;stroke:none" />
      <path
         inkscape:connector-curvature="0"
         id="rect4573-5-4-6-4-8-7-8"
         d="m 2240.8163,-834.12763 c -30.8452,0.18189 -68.5609,8.18621 -106.9371,24.22186 -80.5332,33.65094 -133.9264,90.07386 -120.9259,127.13873 0.019,0.0263 0.019,0.0544 0.021,0.0806 0.208,0.58824 0.4283,1.16785 0.67,1.74615 0.2417,0.5783 0.4992,1.14404 0.7717,1.70546 0.023,0.0488 0.058,0.0938 0.081,0.14251 l 23.3893,55.976 0.1013,0.28409 c 0.18,0.49204 0.3658,0.97696 0.5685,1.46188 0.2042,0.48867 0.4236,0.96514 0.6496,1.44162 0.041,0.0881 0.081,0.17627 0.1218,0.26384 l 0.3046,0.75119 0.081,-0.0412 c 17.8634,34.66933 95.0551,36.10459 175.0949,2.65992 80.038,-33.44411 133.2598,-89.37661 121.1495,-126.44841 l 0.041,-0.0206 -0.1819,-0.44667 c -0.2368,-0.69099 -0.5089,-1.37318 -0.7919,-2.05068 -0.2417,-0.57811 -0.4991,-1.14422 -0.7714,-1.70546 -0.019,-0.0375 -0.043,-0.0656 -0.06,-0.10313 l -23.5721,-56.42255 c -0.1632,-0.44292 -0.3248,-0.88245 -0.5076,-1.31955 -0.216,-0.51736 -0.4495,-1.0396 -0.6903,-1.54326 -0.038,-0.0788 -0.064,-0.16502 -0.1012,-0.24359 -9.0149,-18.48742 -34.6086,-27.73123 -68.5031,-27.53115 z"
         style="opacity:0.1;fill:#000000;fill-opacity:1;stroke:none" />
      <path
         inkscape:connector-curvature="0"
         id="rect4573-5-4-6-4-8-7"
         d="m 2230.8163,-868.12735 c -30.8452,0.18189 -68.5609,8.18621 -106.9371,24.22186 -80.5332,33.65094 -133.9264,90.07386 -120.9259,127.13873 0.019,0.0263 0.019,0.0544 0.021,0.0806 0.208,0.58824 0.4283,1.16785 0.67,1.74615 0.2417,0.5783 0.4992,1.14404 0.7717,1.70546 0.023,0.0488 0.058,0.0938 0.081,0.14251 l 23.3893,55.976 0.1013,0.28409 c 0.18,0.49204 0.3658,0.97696 0.5685,1.46188 0.2042,0.48867 0.4236,0.96514 0.6496,1.44162 0.041,0.0881 0.081,0.17627 0.1218,0.26384 l 0.3046,0.75119 0.081,-0.0412 c 17.8634,34.66933 95.0551,36.10459 175.0949,2.65992 80.038,-33.44411 133.2598,-89.37661 121.1495,-126.44841 l 0.041,-0.0206 -0.1819,-0.44667 c -0.2368,-0.69099 -0.5089,-1.37318 -0.7919,-2.05068 -0.2417,-0.57811 -0.4991,-1.14422 -0.7714,-1.70546 -0.019,-0.0375 -0.043,-0.0656 -0.06,-0.10313 l -23.5721,-56.42255 c -0.1632,-0.44292 -0.3248,-0.88245 -0.5076,-1.31955 -0.216,-0.51736 -0.4495,-1.0396 -0.6903,-1.54326 -0.038,-0.0788 -0.064,-0.16502 -0.1012,-0.24359 -9.0149,-18.48742 -34.6086,-27.73123 -68.5031,-27.53115 z"
         style="fill:#ffffff;fill-opacity:1;stroke:none" />
    </g>
  </g>
</svg>
